<svg xmlns="http://www.w3.org/2000/svg" viewBox="0 0 200 60"><defs><style>.cls-1{fill:#23455f;}.cls-2{fill:#303030;}.cls-3{fill:#727272;}</style></defs><g id="Layer_2" data-name="Layer 2"><path class="cls-1" d="M25.21,58l0-3.21a98.83,98.83,0,0,1,2.08-17.32,104.9,104.9,0,0,1,4.83-16.72A82,82,0,0,1,41.49,2.93L42.12,2l.66.87.33.43C45.54,6.5,53,16.13,57.53,41.11l.54,2.94-1.93-2.28c-.34-.41-.68-.84-1-1.29-2.28-2.9-4.63-5.9-9.18-4.18-5.9,2.22-10.79,7.2-13.86,11a55.55,55.55,0,0,0-5.35,7.84Zm17-53.22c-7.75,11.39-11.5,24.16-13.3,33A106.82,106.82,0,0,0,27,51.64a60.5,60.5,0,0,1,3.85-5.33,48.27,48.27,0,0,1,6.3-6.5,28.61,28.61,0,0,1,8.26-5,7.34,7.34,0,0,1,6.8.47,13.82,13.82,0,0,1,3.19,3C51,17,44.71,8.06,42.17,4.74Z"/><path class="cls-1" d="M28.51,43.9C28.92,42.85,35,15.51,41.9,7c.86.84,7.38,11.38,3.07,20.53S28.51,43.9,28.51,43.9Z"/><path class="cls-2" d="M70.72,9.68h1.63V18.3H70.72Z"/><path class="cls-2" d="M74.2,9.68h1.57l3.69,5.67V9.68H81.1V18.3H79.52l-3.68-5.65V18.3H74.2Z"/><path class="cls-2" d="M83.08,9.68h1.57l3.69,5.67V9.68H90V18.3H88.4l-3.68-5.65V18.3H83.08Z"/><path class="cls-2" d="M96,9.46a4.29,4.29,0,0,1,3.14,1.33A4.4,4.4,0,0,1,100.48,14a4.35,4.35,0,0,1-1.3,3.19,4.49,4.49,0,0,1-6.38,0,4.61,4.61,0,0,1-.68-5.46,4.38,4.38,0,0,1,1.64-1.64A4.48,4.48,0,0,1,96,9.46Zm0,1.61a2.71,2.71,0,0,0-2,.83A2.89,2.89,0,0,0,93.17,14a2.75,2.75,0,0,0,1,2.26,2.83,2.83,0,0,0,1.83.65,2.68,2.68,0,0,0,2-.84A2.92,2.92,0,0,0,98.84,14,2.88,2.88,0,0,0,98,11.92,2.68,2.68,0,0,0,96,11.07Z"/><path class="cls-2" d="M101.37,9.68h1.69l2.17,6.12,2.2-6.12h1.68L106,18.3h-1.59Z"/><path class="cls-2" d="M113.06,9.68h1.66L118,18.3h-1.71l-.67-1.78h-3.52l-.7,1.78h-1.71ZM113.9,12l-1.16,2.95h2.31Z"/><path class="cls-2" d="M118.45,9.68h4.77V11.3h-1.57v7H120v-7h-1.53Z"/><path class="cls-2" d="M124.23,9.68h1.62V18.3h-1.62Z"/><path class="cls-2" d="M127.05,9.68h1.68l2.17,6.12,2.2-6.12h1.69l-3.11,8.62H130.1Z"/><path class="cls-2" d="M136.11,9.68h4.7v1.61h-3.07v1.55h3.07v1.58h-3.07v2.27h3.07V18.3h-4.7Z"/><path class="cls-2" d="M78.79,24.09l-1.15,1.14a3.44,3.44,0,0,0-2.56-1.16,2.92,2.92,0,0,0-2.13.84A2.8,2.8,0,0,0,72.09,27,2.85,2.85,0,0,0,73,29.08a3,3,0,0,0,2.2.87,2.64,2.64,0,0,0,1.43-.36,2.53,2.53,0,0,0,1-1.12h-2.5V26.93H79.4v.36a4.24,4.24,0,0,1-.59,2.15A4.09,4.09,0,0,1,77.3,31a4.27,4.27,0,0,1-2.18.54,4.81,4.81,0,0,1-2.39-.59,4.17,4.17,0,0,1-1.67-1.66A4.6,4.6,0,0,1,70.45,27a4.34,4.34,0,0,1,1.13-3,4.47,4.47,0,0,1,3.49-1.51,5.25,5.25,0,0,1,2.1.42A4.73,4.73,0,0,1,78.79,24.09Z"/><path class="cls-2" d="M81,22.68h1.74a5.75,5.75,0,0,1,2,.26,2.08,2.08,0,0,1,1,.84,2.57,2.57,0,0,1,.37,1.4,2.38,2.38,0,0,1-.41,1.42,2.5,2.5,0,0,1-1.23.87l2,3.83h-1.8l-1.93-3.65h-.15V31.3H81Zm1.65,3.37h.51a2,2,0,0,0,1.08-.21.77.77,0,0,0,.29-.68.88.88,0,0,0-.14-.49.81.81,0,0,0-.4-.3,2.94,2.94,0,0,0-.89-.09h-.45Z"/><path class="cls-2" d="M87.88,22.68h4.71v1.61H89.51v1.55h3.08v1.58H89.51v2.27h3.08V31.3H87.88Z"/><path class="cls-2" d="M94.12,22.68h4.71v1.61H95.75v1.55h3.08v1.58H95.75v2.27h3.08V31.3H94.12Z"/><path class="cls-2" d="M100.36,22.68h1.57l3.69,5.67V22.68h1.64V31.3h-1.58L102,25.65V31.3h-1.64Z"/><path class="cls-2" d="M75.36,36.85l-1.22,1.07a1.72,1.72,0,0,0-1.3-.89.79.79,0,0,0-.53.18.47.47,0,0,0-.2.39.72.72,0,0,0,.14.41,12,12,0,0,0,1.21,1.1l1.14,1a3.49,3.49,0,0,1,.7,1,2.39,2.39,0,0,1,.21,1,2.32,2.32,0,0,1-.73,1.76,2.68,2.68,0,0,1-1.91.69,2.87,2.87,0,0,1-1.61-.45,3.77,3.77,0,0,1-1.17-1.42l1.38-.83c.42.76.89,1.14,1.43,1.14a1,1,0,0,0,.71-.25.73.73,0,0,0,.29-.57.94.94,0,0,0-.22-.58,5.69,5.69,0,0,0-1-.9,9.53,9.53,0,0,1-1.82-1.77,2.21,2.21,0,0,1-.41-1.25,2,2,0,0,1,.68-1.53,2.36,2.36,0,0,1,1.69-.65,2.59,2.59,0,0,1,1.22.3A4.56,4.56,0,0,1,75.36,36.85Z"/><path class="cls-2" d="M81.15,35.46a4.3,4.3,0,0,1,3.14,1.33,4.59,4.59,0,0,1,0,6.42,4.49,4.49,0,0,1-6.38,0,4.61,4.61,0,0,1-.68-5.46,4.31,4.31,0,0,1,1.64-1.64A4.48,4.48,0,0,1,81.15,35.46Zm0,1.61a2.71,2.71,0,0,0-2,.83A2.89,2.89,0,0,0,78.3,40a2.75,2.75,0,0,0,1,2.26,2.83,2.83,0,0,0,1.83.65,2.7,2.7,0,0,0,2-.84A2.92,2.92,0,0,0,84,40a2.88,2.88,0,0,0-.83-2.08A2.68,2.68,0,0,0,81.13,37.07Z"/><path class="cls-2" d="M87.15,35.68h1.64v7.06h2.39V44.3h-4Z"/><path class="cls-2" d="M92.37,35.68H94v5.57a2.75,2.75,0,0,0,.13,1,1,1,0,0,0,.41.48,1.33,1.33,0,0,0,.7.18,1.4,1.4,0,0,0,.75-.2,1,1,0,0,0,.43-.51,3.7,3.7,0,0,0,.12-1.17V35.68h1.65v5.14a7.19,7.19,0,0,1-.15,1.8,2.45,2.45,0,0,1-.56,1,2.55,2.55,0,0,1-1,.69,3.24,3.24,0,0,1-1.25.23,3.07,3.07,0,0,1-1.63-.43,2.51,2.51,0,0,1-1-1.08,5.67,5.67,0,0,1-.3-2.19Z"/><path class="cls-2" d="M99.26,35.68H104V37.3h-1.57v7h-1.67v-7H99.26Z"/><path class="cls-2" d="M105,35.68h1.63V44.3H105Z"/><path class="cls-2" d="M112.58,35.46a4.31,4.31,0,0,1,3.15,1.33A4.43,4.43,0,0,1,117,40a4.35,4.35,0,0,1-1.3,3.19,4.48,4.48,0,0,1-6.37,0A4.42,4.42,0,0,1,108.08,40a4.49,4.49,0,0,1,.6-2.28,4.55,4.55,0,0,1,3.9-2.25Zm0,1.61a2.71,2.71,0,0,0-2,.83,2.92,2.92,0,0,0-.81,2.12,2.77,2.77,0,0,0,1,2.26,2.83,2.83,0,0,0,1.83.65,2.68,2.68,0,0,0,2-.84,3.06,3.06,0,0,0,0-4.17A2.72,2.72,0,0,0,112.56,37.07Z"/><path class="cls-2" d="M118.59,35.68h1.58l3.69,5.67V35.68h1.64V44.3h-1.58l-3.68-5.65V44.3h-1.65Z"/><path class="cls-2" d="M132,36.85l-1.22,1.07a1.72,1.72,0,0,0-1.3-.89.79.79,0,0,0-.53.18.5.5,0,0,0-.2.39.72.72,0,0,0,.14.41,12,12,0,0,0,1.21,1.1l1.14,1a3.49,3.49,0,0,1,.7,1,2.39,2.39,0,0,1,.21,1,2.32,2.32,0,0,1-.73,1.76,2.68,2.68,0,0,1-1.91.69,2.87,2.87,0,0,1-1.61-.45,3.77,3.77,0,0,1-1.17-1.42l1.38-.83c.42.76.89,1.14,1.43,1.14a1,1,0,0,0,.71-.25.73.73,0,0,0,.29-.57.94.94,0,0,0-.22-.58,5.69,5.69,0,0,0-.95-.9,9.53,9.53,0,0,1-1.82-1.77,2.21,2.21,0,0,1-.41-1.25,2,2,0,0,1,.68-1.53,2.36,2.36,0,0,1,1.69-.65,2.66,2.66,0,0,1,1.23.3A4.69,4.69,0,0,1,132,36.85Z"/><rect class="cls-3" x="64.19" y="9.47" width="1.02" height="34.44"/></g></svg>