<svg xmlns="http://www.w3.org/2000/svg" viewBox="0 0 1080 1080"><defs><style>.cls-1{fill:#fdfdfd;}.cls-2{fill:#fe7d15;}.cls-3,.cls-4{fill:#13567f;}.cls-4{font-size:152.49px;font-family:Lato-MediumItalic, Lato;font-weight:500;font-style:italic;}.cls-5{fill:#eb6608;}</style></defs><g id="Head"><path class="cls-1" d="M749.33,461.1c2.55-.57,3,1.86,2.83,4.17C751.12,464.27,749.58,462.94,749.33,461.1Z"/><path class="cls-1" d="M752.55,465.25c1.43-.13,2.61.07,2.55,1.92C753.7,467.27,753.29,466,752.55,465.25Z"/><path class="cls-1" d="M749.37,479.08c.82-.11,2.06,0,1.76.85-.41,1.13-1.63.4-2.51.06Z"/><circle class="cls-2" cx="392.98" cy="339.17" r="28.9"/><path class="cls-3" d="M836.31,222.49C597.54,258.93,361.45,397.66,253.37,637.21,211.59,729.82,211,766.08,195.3,829.07c-26.34-36.7-62.57-82.28-82-122.72q13.1-30.48,29-60.3A801.47,801.47,0,0,1,370.53,379.93a45.56,45.56,0,0,0,70.22-38.32,44.44,44.44,0,0,0-.71-8C560.21,262.21,697.23,223.64,836.31,222.49Z"/><path class="cls-3" d="M107,602.38,63.13,522.3S306.06,241.81,665,220.77C588.8,244.15,267.13,315.74,107,602.38Z"/><path class="cls-3" d="M68.73,402.57S200.28,282.68,486.66,224.51C358.72,284.57,207.76,318.16,95,453.83,71.7,412.51,68.73,402.57,68.73,402.57Z"/><text class="cls-4" transform="translate(316.47 700.54)">Aigle<tspan class="cls-5" x="314.74" y="0">Sense</tspan></text></g></svg>